<svg xmlns="http://www.w3.org/2000/svg" viewBox="0 0 64 64" width="32" height="32">
  <!-- 蛋糕底层 -->
  <ellipse cx="32" cy="52" rx="24" ry="6" fill="#8B4513"/>

  <!-- 蛋糕第三层 -->
  <rect x="10" y="44" width="44" height="8" fill="#D2691E" rx="2"/>
  <ellipse cx="32" cy="44" rx="22" ry="5" fill="#F4A460"/>

  <!-- 蛋糕第二层 -->
  <rect x="14" y="32" width="36" height="8" fill="#CD853F" rx="2"/>
  <ellipse cx="32" cy="32" rx="18" ry="4" fill="#DEB887"/>

  <!-- 蛋糕第一层 -->
  <rect x="18" y="20" width="28" height="8" fill="#D2691E" rx="2"/>
  <ellipse cx="32" cy="20" rx="14" ry="3.5" fill="#F4A460"/>

  <!-- 蜡烛 -->
  <rect x="30" y="10" width="4" height="10" fill="#FFE4B5" rx="1"/>

  <!-- 火焰 -->
  <ellipse cx="32" cy="8" rx="3" ry="4" fill="#FFA500"/>
  <ellipse cx="32" cy="7" rx="2" ry="3" fill="#FFD700"/>
  <ellipse cx="32" cy="6.5" rx="1" ry="2" fill="#FFFF00"/>

  <!-- 装饰樱桃 -->
  <circle cx="24" cy="30" r="2" fill="#DC143C"/>
  <circle cx="40" cy="30" r="2" fill="#DC143C"/>
  <circle cx="20" cy="42" r="2" fill="#DC143C"/>
  <circle cx="44" cy="42" r="2" fill="#DC143C"/>
</svg>
